# xmcd CD database file
#
# Track frame offsets:
#	150
#	16752
#	35378
#	48039
#	63971
#	80873
#	94083
#	113583
#
# Disc length: 1662 seconds
#
# Revision: 0
# Processed by: cddbd v1.5.2PL0 Copyright (c) Steve Scherf et al.
# Submitted via: CDex 1.51
#
DISCID=55067c08
DTITLE=Bottle Nose - Bottle Nose
DYEAR=2009
DGENRE=Blues
TTITLE0=Too Late
TTITLE1=Bassman Mama
TTITLE2=Who Will Be Next
TTITLE3=Can't Get Even With My Baby
TTITLE4=Forty Days and Fourty Nights
TTITLE5=Good Morning Little Schoolgirl
TTITLE6=Rock Me Baby
TTITLE7=I Ain't Got You
EXTD=YEAR: 2009
EXTT0=
EXTT1=
EXTT2=
EXTT3=
EXTT4=
EXTT5=
EXTT6=
EXTT7=
PLAYORDER=
